<mxfile host="app.diagrams.net" modified="2022-01-07T08:11:10.799Z" agent="5.0 (Windows NT 10.0; Win64; x64) AppleWebKit/537.36 (KHTML, like Gecko) Chrome/97.0.4692.71 Safari/537.36" etag="tEmxaI5Wqt4Wu7ihpwGD" version="16.2.2" type="github">
  <diagram id="SYhz2E_SLLpf6nUCebB-" name="Page-1">
    <mxGraphModel dx="677" dy="363" grid="1" gridSize="10" guides="1" tooltips="1" connect="1" arrows="1" fold="1" page="1" pageScale="1" pageWidth="827" pageHeight="1169" math="0" shadow="0">
      <root>
        <mxCell id="0" />
        <mxCell id="1" parent="0" />
        <mxCell id="ke7xlkD7LGY2HUiV2v0M-6" style="edgeStyle=orthogonalEdgeStyle;rounded=0;orthogonalLoop=1;jettySize=auto;html=1;exitX=1;exitY=0.5;exitDx=0;exitDy=0;entryX=0;entryY=0.5;entryDx=0;entryDy=0;" edge="1" parent="1" source="ke7xlkD7LGY2HUiV2v0M-1" target="ke7xlkD7LGY2HUiV2v0M-2">
          <mxGeometry relative="1" as="geometry" />
        </mxCell>
        <mxCell id="ke7xlkD7LGY2HUiV2v0M-1" value="图片输入" style="rounded=0;whiteSpace=wrap;html=1;" vertex="1" parent="1">
          <mxGeometry x="80" y="230" width="80" height="50" as="geometry" />
        </mxCell>
        <mxCell id="ke7xlkD7LGY2HUiV2v0M-7" style="edgeStyle=orthogonalEdgeStyle;rounded=0;orthogonalLoop=1;jettySize=auto;html=1;exitX=1;exitY=0.5;exitDx=0;exitDy=0;entryX=0;entryY=0.5;entryDx=0;entryDy=0;" edge="1" parent="1" source="ke7xlkD7LGY2HUiV2v0M-2" target="ke7xlkD7LGY2HUiV2v0M-3">
          <mxGeometry relative="1" as="geometry" />
        </mxCell>
        <mxCell id="ke7xlkD7LGY2HUiV2v0M-2" value="模型推理" style="rounded=0;whiteSpace=wrap;html=1;" vertex="1" parent="1">
          <mxGeometry x="180" y="230" width="80" height="50" as="geometry" />
        </mxCell>
        <mxCell id="ke7xlkD7LGY2HUiV2v0M-10" style="edgeStyle=orthogonalEdgeStyle;rounded=0;orthogonalLoop=1;jettySize=auto;html=1;exitX=1;exitY=0.5;exitDx=0;exitDy=0;entryX=0;entryY=0.5;entryDx=0;entryDy=0;" edge="1" parent="1" source="ke7xlkD7LGY2HUiV2v0M-3" target="ke7xlkD7LGY2HUiV2v0M-11">
          <mxGeometry relative="1" as="geometry">
            <mxPoint x="390" y="255" as="targetPoint" />
          </mxGeometry>
        </mxCell>
        <mxCell id="ke7xlkD7LGY2HUiV2v0M-14" style="edgeStyle=orthogonalEdgeStyle;rounded=0;orthogonalLoop=1;jettySize=auto;html=1;exitX=0.5;exitY=1;exitDx=0;exitDy=0;entryX=0.002;entryY=0.566;entryDx=0;entryDy=0;entryPerimeter=0;" edge="1" parent="1" source="ke7xlkD7LGY2HUiV2v0M-3" target="ke7xlkD7LGY2HUiV2v0M-4">
          <mxGeometry relative="1" as="geometry" />
        </mxCell>
        <mxCell id="ke7xlkD7LGY2HUiV2v0M-3" value="后处理算法" style="rounded=0;whiteSpace=wrap;html=1;" vertex="1" parent="1">
          <mxGeometry x="280" y="230" width="80" height="50" as="geometry" />
        </mxCell>
        <mxCell id="ke7xlkD7LGY2HUiV2v0M-15" style="edgeStyle=orthogonalEdgeStyle;rounded=0;orthogonalLoop=1;jettySize=auto;html=1;exitX=1;exitY=0.5;exitDx=0;exitDy=0;entryX=0;entryY=0.5;entryDx=0;entryDy=0;" edge="1" parent="1" source="ke7xlkD7LGY2HUiV2v0M-4" target="ke7xlkD7LGY2HUiV2v0M-5">
          <mxGeometry relative="1" as="geometry">
            <Array as="points">
              <mxPoint x="460" y="335" />
              <mxPoint x="460" y="255" />
            </Array>
          </mxGeometry>
        </mxCell>
        <mxCell id="ke7xlkD7LGY2HUiV2v0M-4" value="后处理优化" style="rounded=0;whiteSpace=wrap;html=1;" vertex="1" parent="1">
          <mxGeometry x="376" y="310" width="76" height="50" as="geometry" />
        </mxCell>
        <mxCell id="ke7xlkD7LGY2HUiV2v0M-5" value="结果输出" style="rounded=0;whiteSpace=wrap;html=1;" vertex="1" parent="1">
          <mxGeometry x="480" y="230" width="80" height="50" as="geometry" />
        </mxCell>
        <mxCell id="ke7xlkD7LGY2HUiV2v0M-12" value="" style="edgeStyle=orthogonalEdgeStyle;rounded=0;orthogonalLoop=1;jettySize=auto;html=1;" edge="1" parent="1" source="ke7xlkD7LGY2HUiV2v0M-11" target="ke7xlkD7LGY2HUiV2v0M-5">
          <mxGeometry relative="1" as="geometry" />
        </mxCell>
        <mxCell id="ke7xlkD7LGY2HUiV2v0M-17" value="N" style="edgeLabel;html=1;align=center;verticalAlign=middle;resizable=0;points=[];" vertex="1" connectable="0" parent="ke7xlkD7LGY2HUiV2v0M-12">
          <mxGeometry x="-0.329" relative="1" as="geometry">
            <mxPoint x="-8" as="offset" />
          </mxGeometry>
        </mxCell>
        <mxCell id="ke7xlkD7LGY2HUiV2v0M-13" value="Y" style="edgeStyle=orthogonalEdgeStyle;rounded=0;orthogonalLoop=1;jettySize=auto;html=1;exitX=0.5;exitY=1;exitDx=0;exitDy=0;entryX=0.5;entryY=0;entryDx=0;entryDy=0;" edge="1" parent="1" source="ke7xlkD7LGY2HUiV2v0M-11" target="ke7xlkD7LGY2HUiV2v0M-4">
          <mxGeometry relative="1" as="geometry" />
        </mxCell>
        <mxCell id="ke7xlkD7LGY2HUiV2v0M-11" value="特殊目标" style="rhombus;whiteSpace=wrap;html=1;" vertex="1" parent="1">
          <mxGeometry x="384" y="217.5" width="60" height="75" as="geometry" />
        </mxCell>
      </root>
    </mxGraphModel>
  </diagram>
</mxfile>
